<svg width="40" height="41" viewBox="0 0 40 41" fill="none" xmlns="http://www.w3.org/2000/svg">
<rect y="0.0505371" width="40" height="40" rx="20" fill="#F2F2F2"/>
<path d="M17.5 11.5982C17.5 11.1273 17.6466 10.667 17.9213 10.2755C18.196 9.88391 18.5865 9.57873 19.0433 9.39853C19.5001 9.21832 20.0028 9.17117 20.4877 9.26304C20.9727 9.35491 21.4181 9.58167 21.7678 9.91465C22.1174 10.2476 22.3555 10.6719 22.452 11.1337C22.5484 11.5956 22.4989 12.0743 22.3097 12.5094C22.1205 12.9445 21.8 13.3163 21.3889 13.5779C20.9778 13.8395 20.4945 13.9792 20 13.9792L20 17.5506" stroke="#2D2926" stroke-width="1.33333" stroke-linecap="round" stroke-linejoin="round"/>
<path d="M33.3337 26.7174L20.8837 18.9361C20.3432 18.5983 19.6574 18.5983 19.117 18.9361L6.66699 26.7174" stroke="#CCCCCC" stroke-width="3.33333" stroke-linecap="round"/>
</svg>
