<svg width="38" height="23" viewBox="0 0 38 23" fill="none" xmlns="http://www.w3.org/2000/svg">
    <g clip-path="url(#clip0_830_4803)">
        <path d="M11.4065 7.71882C11.4411 9.61954 11.4666 9.27661 12.6104 9.26384C13.3619 9.25472 14.0733 8.64911 14.1153 7.76442C14.2065 5.8035 12.2911 5.6667 11.4703 5.62109C11.4703 5.62109 11.3882 6.72103 11.4065 7.71882Z" fill="#ED744C"/>
        <path d="M11.9007 9.84133C11.6563 9.84133 11.4283 9.79937 11.2276 9.61514C10.8883 9.30322 10.8792 8.84172 10.8591 7.72719C10.8409 6.71481 10.9212 5.62582 10.9248 5.57839C10.9467 5.28106 11.2057 5.05669 11.5012 5.07311C13.6774 5.1935 14.7408 6.10738 14.6624 7.78738C14.6095 8.90739 13.712 9.7939 12.6176 9.80849C12.4552 9.81032 12.3166 9.81944 12.198 9.82674C12.0977 9.83403 11.9974 9.8395 11.9007 9.8395V9.84133ZM11.9536 7.70712C11.9609 8.07377 11.9682 8.51155 11.9956 8.74322C12.0393 8.74139 12.0849 8.73774 12.1269 8.73592C12.2564 8.7268 12.4151 8.71768 12.603 8.71403C13.0554 8.70856 13.5406 8.34191 13.5679 7.73631C13.6099 6.8352 13.1429 6.37552 11.9828 6.215C11.9627 6.61631 11.9445 7.17813 11.9536 7.7053V7.70712Z" fill="black"/>
        <path d="M32.0516 9.4061C32.0516 9.4061 33.6331 7.44519 33.5418 6.25952C33.3904 4.30042 31.5809 3.59267 29.6656 4.20739C27.7503 4.82212 25.6982 6.71554 25.1054 7.30838C24.7861 7.6276 24.5125 9.22369 26.1086 9.3149C27.7047 9.4061 26.1688 8.81327 32.0516 9.4061Z" fill="#ED744C"/>
        <path d="M32.0533 9.95286C32.0351 9.95286 32.0168 9.95286 31.9986 9.94921C28.1297 9.55885 27.5478 9.69383 27.1629 9.78139C26.9239 9.83611 26.6777 9.89266 26.0794 9.85983C24.9812 9.79781 24.5781 9.15937 24.4358 8.7836C24.175 8.09956 24.3738 7.26777 24.7204 6.91937C25.1381 6.50165 27.3343 4.38021 29.4996 3.68522C30.7564 3.2821 31.9803 3.38607 32.8541 3.97343C33.5874 4.46594 34.0142 5.24119 34.089 6.21526C34.193 7.57787 32.6553 9.52966 32.4801 9.74673C32.3762 9.87624 32.2193 9.95103 32.0551 9.95103L32.0533 9.95286ZM28.1862 8.59025C28.8775 8.59025 29.9665 8.64862 31.8034 8.82921C32.3506 8.09592 33.0438 6.93214 32.9945 6.29917C32.9453 5.66256 32.6917 5.18464 32.2412 4.88184C31.6465 4.48236 30.7673 4.42581 29.8315 4.72679C27.8889 5.35063 25.7802 7.40458 25.5011 7.68367C25.4409 7.7767 25.3406 8.15976 25.4738 8.4352C25.5084 8.50999 25.6179 8.73618 26.1395 8.76536C26.5828 8.7909 26.7141 8.75989 26.9148 8.71429C27.1702 8.65592 27.4547 8.58843 28.1862 8.58843V8.59025Z" fill="black"/>
        <path d="M33.6036 16.8059C32.5128 18.3911 30.4224 19.0678 28.7095 19.2995C27.2648 19.4965 25.1069 19.1171 23.1916 18.6337C21.508 18.2086 11.8128 15.6421 8.91797 13.7359C8.91797 13.7359 11.5629 11.1822 11.3805 9.35808C11.3805 9.35808 13.1134 9.28511 14.1167 9.23951C15.1218 9.19391 16.3986 9.33437 20.8659 9.17567C21.5554 9.15195 23.7844 9.3672 26.1102 9.2614C28.1222 9.1702 30.7197 9.27235 31.8105 9.40368C34.9717 9.7831 35.6101 13.8855 33.6036 16.8041V16.8059Z" fill="#ED744C"/>
        <path d="M27.8485 19.8988C26.3235 19.8988 24.4629 19.5194 23.0547 19.1655C22.9435 19.1363 11.8401 16.3199 8.61328 14.193C8.47465 14.1018 8.38527 13.9522 8.36885 13.7862C8.35426 13.6202 8.41445 13.4579 8.53302 13.3411C9.21524 12.6808 10.9591 10.687 10.8314 9.412C10.8168 9.26242 10.8642 9.11284 10.9627 8.99975C11.0612 8.88665 11.2017 8.81734 11.3531 8.81187C11.3531 8.81187 13.0842 8.7389 14.0874 8.6933C14.4468 8.67688 14.8298 8.68418 15.3588 8.6933C16.3749 8.70972 17.9108 8.73525 20.8421 8.63128C21.0993 8.62216 21.5042 8.6404 22.0661 8.66776C23.1222 8.71701 24.5706 8.78633 26.0809 8.71701C28.0327 8.62763 30.6996 8.72248 31.8707 8.86294C33.2296 9.02711 34.2912 9.80783 34.8585 11.0646C35.6539 12.8249 35.3292 15.2564 34.0486 17.117C32.7207 19.0469 30.1761 19.6544 28.777 19.8441C28.4869 19.8842 28.1732 19.9006 27.8448 19.9006L27.8485 19.8988ZM9.79165 13.6166C12.8562 15.2619 20.4663 17.3815 23.3247 18.102C25.6431 18.6876 27.4782 18.9138 28.6347 18.7551C29.855 18.5891 32.064 18.0747 33.1512 16.4932C34.2219 14.9372 34.5083 12.9343 33.8644 11.5115C33.578 10.8786 32.9779 10.0942 31.743 9.94464C30.6138 9.80965 28.0327 9.71845 26.1338 9.806C24.5724 9.87714 23.0347 9.806 22.0168 9.75675C21.5024 9.73304 21.0956 9.71297 20.8841 9.72027C17.9254 9.82607 16.3712 9.80053 15.3442 9.78411C14.8335 9.77499 14.4668 9.76952 14.1403 9.78411C13.48 9.8133 12.5041 9.85526 11.9131 9.88079C11.7325 11.2999 10.5085 12.8267 9.79165 13.6147V13.6166Z" fill="black"/>
        <path d="M30.7765 12.8386C31.1431 12.5522 30.9589 12.0633 29.9866 12.2476C28.137 12.5978 18.0205 11.6 15.2551 11.279C14.4799 11.1896 14.0695 11.0017 13.4912 11.2443C13.4912 11.2443 13.2358 11.569 13.8287 11.6146C16.2292 12.1546 26.0338 13.2034 28.9815 13.2235C29.8188 13.229 30.3551 13.1669 30.7746 12.8386H30.7765Z" fill="black"/>
        <path d="M23.874 14.4658C24.3902 14.6045 25.5759 14.7705 25.1837 16.2899C24.766 17.9098 20.742 21.1129 18.9033 21.9118C16.8056 22.8239 13.1118 22.4317 12.8838 19.9382C12.6685 17.5759 15.7567 15.7427 16.988 14.7395C18.1153 13.8201 17.9475 13.9405 18.9945 13.873C20.224 13.7927 22.6664 14.1411 23.874 14.4658Z" fill="#ED744C"/>
        <path d="M16.5993 22.9048C15.5687 22.9048 14.5581 22.6805 13.8121 22.239C12.9365 21.721 12.4257 20.9421 12.34 19.9899C12.1302 17.6915 14.4396 15.9714 15.97 14.8313C16.2327 14.6343 16.4607 14.4665 16.6449 14.3169L16.716 14.2586C17.6901 13.4632 17.805 13.3903 18.6532 13.3465C18.7426 13.341 18.8448 13.3374 18.9615 13.3283C20.2293 13.248 22.721 13.5891 24.0179 13.9393C24.0526 13.9485 24.0927 13.9594 24.1329 13.9685C24.5378 14.0688 25.2146 14.2385 25.583 14.8569C25.8311 15.2746 25.8767 15.8036 25.7144 16.4292C25.2273 18.3172 20.9936 21.6024 19.122 22.416C18.365 22.7443 17.4749 22.9066 16.5993 22.9066V22.9048ZM19.3957 14.4081C19.2643 14.4081 19.1421 14.4118 19.0308 14.4191C18.9086 14.4264 18.801 14.4318 18.708 14.4373C18.365 14.4543 17.9315 14.6769 17.4074 15.1049L17.3344 15.1633C17.1338 15.3275 16.8857 15.5117 16.623 15.7069C15.2896 16.6992 13.2758 18.2004 13.429 19.8877C13.4837 20.4842 13.7993 20.9585 14.3702 21.296C15.4574 21.9399 17.3527 21.9891 18.6861 21.4091C20.4482 20.6429 24.2989 17.5328 24.6546 16.152C24.7129 15.924 24.7585 15.6102 24.6418 15.4132C24.5068 15.187 24.1365 15.094 23.8665 15.0265C23.8173 15.0137 23.7717 15.0028 23.7297 14.9918C22.6535 14.7018 20.6215 14.4063 19.3938 14.4063L19.3957 14.4081Z" fill="black"/>
        <path d="M9.93225 12.7347C8.54957 14.7175 6.30227 15.6222 3.71751 15.5347C2.39503 15.4891 0.220698 15.0276 0.935748 13.0083C1.36441 11.7971 2.50083 10.6059 3.76311 9.95289C3.76311 9.95289 6.74188 9.09921 10.9738 10.5001C10.9738 10.5001 11.1051 11.0528 9.93042 12.7347H9.93225Z" fill="#ED744C"/>
        <path d="M4.05682 16.0868C3.93826 16.0868 3.81969 16.085 3.6993 16.0814C2.83102 16.0522 1.26776 15.8497 0.574602 14.8318C0.315579 14.4506 0.0784446 13.7939 0.419553 12.8253C0.882876 11.5156 2.09591 10.1986 3.51141 9.46715C3.54425 9.45073 3.57708 9.43796 3.61174 9.42702C3.73943 9.39053 6.80393 8.54415 11.1453 9.98154C11.3259 10.0417 11.4627 10.1895 11.5065 10.3756C11.563 10.6127 11.5667 11.3496 10.3792 13.0497C9.00563 15.0179 6.76927 16.0905 4.055 16.0905L4.05682 16.0868ZM3.96197 10.4649C2.82008 11.0724 1.81682 12.1595 1.452 13.1883C1.22216 13.8377 1.41552 14.1204 1.47936 14.2135C1.83688 14.7388 2.88027 14.9559 3.7376 14.9869C6.23116 15.0708 8.27051 14.1606 9.48354 12.4204C10.0162 11.6579 10.2497 11.1636 10.3518 10.8772C6.86777 9.83744 4.33956 10.3756 3.96197 10.4668V10.4649Z" fill="black"/>
        <path d="M20.9443 20.7411C20.6999 20.4018 19.9137 19.7761 19.0564 19.581C17.6974 19.269 14.6019 18.8294 13.2466 18.7528L14.186 17.4395C14.186 17.4395 18.759 17.6839 20.813 18.4354C21.5153 18.6926 21.4879 18.917 22.2029 19.6101L20.9443 20.7411Z" fill="white"/>
        <path d="M32.9692 7.80435C32.7576 7.68031 32.4621 7.35926 31.6358 7.28995C30.8095 7.22063 26.9223 6.6734 25.8862 6.8321L26.9734 5.98389C27.7705 5.54975 30.6508 6.04956 32.0499 6.20096C33.0422 6.30858 33.0349 6.68435 33.3304 6.91053L32.9692 7.80617V7.80435Z" fill="white"/>
        <path d="M32.0533 9.95286C32.0351 9.95286 32.0168 9.95286 31.9986 9.94921C28.1297 9.55885 27.5478 9.69383 27.1629 9.78139C26.9239 9.83611 26.6777 9.89266 26.0794 9.85983C24.9812 9.79781 24.5781 9.15937 24.4358 8.7836C24.175 8.09956 24.3738 7.26777 24.7204 6.91937C25.1381 6.50165 27.3343 4.38021 29.4996 3.68522C30.7564 3.2821 31.9803 3.38607 32.8541 3.97343C33.5874 4.46594 34.0142 5.24119 34.089 6.21526C34.193 7.57787 32.6553 9.52966 32.4801 9.74673C32.3762 9.87624 32.2193 9.95103 32.0551 9.95103L32.0533 9.95286ZM28.1862 8.59025C28.8775 8.59025 29.9665 8.64862 31.8034 8.82921C32.3506 8.09592 33.0438 6.93214 32.9945 6.29917C32.9453 5.66256 32.6917 5.18464 32.2412 4.88184C31.6465 4.48236 30.7673 4.42581 29.8315 4.72679C27.8889 5.35063 25.7802 7.40458 25.5011 7.68367C25.4409 7.7767 25.3406 8.15976 25.4738 8.4352C25.5084 8.50999 25.6179 8.73618 26.1395 8.76536C26.5828 8.7909 26.7141 8.75989 26.9148 8.71429C27.1702 8.65592 27.4547 8.58843 28.1862 8.58843V8.59025Z" fill="black"/>
        <path d="M21.3201 10.4867C21.0136 10.1985 21.3748 9.00733 21.7852 8.36889C22.3197 7.53892 23.6622 7.11937 24.6181 7.45683C25.8439 7.88915 26.475 9.80811 25.9715 10.4867C25.4717 11.1598 22.6115 11.6979 21.3201 10.4867Z" fill="black"/>
        <path d="M23.5566 11.664C22.5022 11.664 21.592 11.3667 21.0101 10.8195C20.3717 10.2212 21.0758 8.63418 21.4041 8.12343C22.0407 7.13112 23.6149 6.62037 24.7732 7.02714C25.678 7.34636 26.2435 8.25112 26.4697 8.99171C26.6886 9.70858 26.6429 10.3525 26.342 10.7593C25.9443 11.2956 24.879 11.5692 24.0874 11.6403C23.9086 11.6567 23.7317 11.664 23.5602 11.664H23.5566ZM21.6668 10.1847C22.1556 10.6152 23.0239 10.8195 24.0016 10.7319C24.9265 10.648 25.5029 10.3543 25.605 10.2157C25.7017 10.0862 25.7382 9.73229 25.5941 9.25803C25.3916 8.59587 24.9484 8.05776 24.4668 7.88812C23.6988 7.61815 22.5825 7.97203 22.1684 8.61594C21.8273 9.14676 21.6157 9.95119 21.665 10.1847H21.6668Z" fill="black"/>
        <path d="M10.9231 10.5005C11.6527 8.12914 11.4484 3.94099 10.5911 2.47988C9.3744 0.405873 5.99798 -0.11947 4.12827 2.20627C2.11993 4.70529 3.48983 9.22361 3.76345 9.95325C5.41974 9.5556 8.42951 9.5556 10.9231 10.5005Z" fill="#ED744C"/>
        <path d="M10.9231 11.0928C10.8519 11.0928 10.7808 11.08 10.7133 11.0545C8.42404 10.188 5.55289 10.1333 3.90207 10.5291C3.61022 10.5984 3.31471 10.4416 3.20891 10.1606C3.01738 9.64989 2.62155 8.28728 2.49933 6.79152C2.32604 4.68102 2.71823 3.01379 3.66676 1.83542C4.64266 0.618738 6.08188 -0.0142276 7.61596 0.098867C9.09896 0.208313 10.4032 0.985383 11.1036 2.17835C12.0613 3.80728 12.2601 8.17419 11.4904 10.6732C11.4429 10.8301 11.3317 10.9596 11.1839 11.0307C11.1018 11.0709 11.0124 11.0909 10.9231 11.0909V11.0928ZM6.24423 9.10631C7.58312 9.10631 9.09348 9.2869 10.5126 9.73015C11.0325 7.35881 10.7516 3.92037 10.0821 2.77848C9.58599 1.93392 8.60827 1.35933 7.53022 1.28089C6.39016 1.19698 5.32123 1.66942 4.59159 2.576C3.12135 4.40558 3.69777 7.71634 4.1611 9.26683C4.7667 9.16468 5.4781 9.10449 6.24423 9.10449V9.10631Z" fill="black"/>
        <path d="M3.65744 3.66797C6.03972 3.89233 8.46031 4.05103 10.7113 3.68621L11.0998 5.21481C8.58253 5.63071 5.72415 5.51032 3.23242 5.16374L3.65744 3.66797Z" fill="white"/>
        <path d="M10.9229 11.0462C10.8572 11.0462 10.7916 11.0353 10.7296 11.0116C8.43117 10.1415 5.54908 10.0886 3.89097 10.4844C3.62283 10.5482 3.34739 10.4023 3.25071 10.1451C3.05918 9.63618 2.66699 8.27905 2.54478 6.78693C2.37331 4.6892 2.76185 3.03109 3.70126 1.86366C4.66986 0.657927 6.09449 0.0322577 7.61215 0.143528C9.08056 0.251151 10.3702 1.02092 11.0634 2.20112C12.0155 3.82275 12.2125 8.1696 11.4464 10.6595C11.4026 10.8036 11.3005 10.924 11.1637 10.9897C11.0871 11.0262 11.005 11.0462 10.9229 11.0462ZM6.24407 9.14915C7.59391 9.14915 9.11704 9.33338 10.5453 9.78758C11.0816 7.4053 10.7989 3.91031 10.1203 2.75565C9.61684 1.89832 8.62453 1.31461 7.53189 1.23617C6.37905 1.15044 5.29371 1.63018 4.55495 2.54953C3.061 4.40829 3.66113 7.77924 4.1281 9.32061C4.73918 9.21481 5.46335 9.15279 6.24407 9.15279V9.14915Z" fill="black"/>
        <path d="M16.5993 22.9048C15.5687 22.9048 14.5581 22.6805 13.8121 22.239C12.9365 21.721 12.4257 20.9421 12.34 19.9899C12.1302 17.6915 14.4396 15.9714 15.97 14.8313C16.2327 14.6343 16.4607 14.4665 16.6449 14.3169L16.716 14.2586C17.6901 13.4632 17.805 13.3903 18.6532 13.3465C18.7426 13.341 18.8448 13.3374 18.9615 13.3283C20.2293 13.248 22.721 13.5891 24.0179 13.9393C24.0526 13.9485 24.0927 13.9594 24.1329 13.9685C24.5378 14.0688 25.2146 14.2385 25.583 14.8569C25.8311 15.2746 25.8767 15.8036 25.7144 16.4292C25.2273 18.3172 20.9936 21.6024 19.122 22.416C18.365 22.7443 17.4749 22.9066 16.5993 22.9066V22.9048ZM19.3957 14.4081C19.2643 14.4081 19.1421 14.4118 19.0308 14.4191C18.9086 14.4264 18.801 14.4318 18.708 14.4373C18.365 14.4543 17.9315 14.6769 17.4074 15.1049L17.3344 15.1633C17.1338 15.3275 16.8857 15.5117 16.623 15.7069C15.2896 16.6992 13.2758 18.2004 13.429 19.8877C13.4837 20.4842 13.7993 20.9585 14.3702 21.296C15.4574 21.9399 17.3527 21.9891 18.6861 21.4091C20.4482 20.6429 24.2989 17.5328 24.6546 16.152C24.7129 15.924 24.7585 15.6102 24.6418 15.4132C24.5068 15.187 24.1365 15.094 23.8665 15.0265C23.8173 15.0137 23.7717 15.0028 23.7297 14.9918C22.6535 14.7018 20.6215 14.4063 19.3938 14.4063L19.3957 14.4081Z" fill="black"/>
        <path d="M23.9014 10.9919C23.8449 10.5121 23.9014 10.1911 23.854 9.64566C25.264 9.41765 25.6562 8.91602 25.6562 8.91602C25.6562 8.91602 26.1706 9.46325 25.9244 10.078C25.7876 10.534 25.0762 10.9444 23.9014 10.9919Z" fill="#FCDFB7"/>
        <path d="M34.3025 18.7084C34.5232 19.2611 35.5922 20.0619 36.1777 18.9054C36.6684 17.9386 36.5644 16.6563 36.5516 15.6074C36.5425 14.8851 36.1412 14.6625 35.4572 14.7537C34.7731 14.8449 34.2843 14.5111 34.1292 15.653C33.9249 17.1506 34.0289 18.0243 34.3025 18.7084Z" fill="#FCDFB7"/>
        <path d="M35.3857 20.0431C35.3657 20.0431 35.3456 20.0431 35.3274 20.0431C34.6378 20.012 34.0067 19.4429 33.7933 18.9121C33.4522 18.0603 33.3883 17.0315 33.5853 15.5795C33.755 14.3227 34.4189 14.2242 35.03 14.2242C35.1522 14.2242 35.2672 14.2242 35.3839 14.2096C35.9348 14.1366 36.3507 14.2296 36.6571 14.4923C36.9435 14.7404 37.0931 15.1125 37.0986 15.5995C37.0986 15.7327 37.104 15.8713 37.1059 16.0118C37.1277 17.0315 37.1551 18.1898 36.6644 19.1529C36.2777 19.9135 35.7177 20.0431 35.3839 20.0431H35.3857ZM34.7728 15.3259C34.7528 15.3588 34.7072 15.4627 34.6707 15.7254C34.4518 17.3343 34.6305 18.0548 34.8093 18.5035C34.8768 18.6713 35.1577 18.9376 35.3748 18.9486C35.4897 18.9559 35.5882 18.8556 35.6885 18.6567C36.0533 17.938 36.0315 16.9275 36.0114 16.0355C36.0077 15.8914 36.0041 15.7491 36.0041 15.6123C36.0023 15.4226 35.9621 15.3387 35.9421 15.3204C35.9384 15.3168 35.8563 15.2511 35.5298 15.2949C35.3383 15.3204 35.165 15.3186 35.0246 15.3186C34.9388 15.3186 34.8239 15.3186 34.7728 15.3277V15.3259Z" fill="black"/>
        <path d="M34.4155 11.6842C34.3571 10.7722 34.0087 9.21987 34.4429 7.91198C34.7511 6.98351 35.9842 6.80475 36.391 7.53439C36.8981 8.4428 36.6829 11.2428 36.4494 11.6386C35.3549 12.1968 34.4155 11.6842 34.4155 11.6842Z" fill="#FCDFB7"/>
        <path d="M35.3878 12.4455C34.68 12.4455 34.1839 12.181 34.151 12.1646C33.9869 12.0752 33.8792 11.9056 33.8665 11.7195C33.8537 11.5298 33.8282 11.2982 33.799 11.0519C33.6914 10.1325 33.5454 8.87209 33.9212 7.74114C34.1401 7.08081 34.7275 6.61202 35.417 6.54635C36.0299 6.4898 36.5844 6.76524 36.8671 7.27052C37.4563 8.32668 37.2684 11.3292 36.9182 11.9202C36.8653 12.0096 36.7887 12.0807 36.6957 12.1281C36.2232 12.3689 35.7727 12.4473 35.386 12.4473L35.3878 12.4455ZM34.9299 11.2945C35.1744 11.3583 35.5665 11.4039 36.0116 11.2343C36.1667 10.5685 36.267 8.4343 35.9131 7.79951C35.8146 7.6244 35.6067 7.6244 35.5228 7.63169C35.3276 7.64994 35.0631 7.77945 34.9628 8.08225C34.6636 8.98336 34.7895 10.0578 34.8898 10.9224C34.9044 11.0501 34.919 11.1741 34.9318 11.2927L34.9299 11.2945Z" fill="black"/>
        <path d="M33.9194 11.8008C33.3758 11.5618 32.3835 11.861 32.0552 13.0448C31.8965 13.6139 32.1464 14.5187 32.9216 14.8142C33.602 15.0732 34.1949 15.0276 34.4411 14.298C34.6053 13.8091 35.0795 12.3115 33.9176 11.8008H33.9194Z" fill="#FCDFB7"/>
        <path d="M33.5948 15.4575C33.3358 15.4575 33.0512 15.3991 32.7429 15.2806C31.7525 14.903 31.3384 13.7483 31.5719 12.9074C31.767 12.2051 32.1884 11.6707 32.7594 11.3989C33.2099 11.1855 33.7188 11.1617 34.122 11.3387C34.7239 11.6032 35.6269 12.3584 34.9191 14.4561C34.7768 14.8756 34.5342 15.1693 34.1949 15.3298C34.0162 15.4137 33.8155 15.4575 33.5966 15.4575H33.5948ZM33.531 12.2252C33.4343 12.2252 33.3157 12.2471 33.1898 12.3073C32.887 12.4514 32.6554 12.7597 32.5405 13.1774C32.4547 13.4857 32.5697 14.1405 33.1023 14.343C33.3996 14.4561 33.6349 14.4853 33.7663 14.4232C33.8483 14.3849 33.9177 14.2883 33.9687 14.1369C34.4886 12.5973 33.9104 12.3438 33.7188 12.2599C33.6732 12.2398 33.6094 12.2252 33.5328 12.2252H33.531Z" fill="black"/>
        <path d="M34.717 12.1553C35.246 11.6537 36.2182 11.5497 36.7363 12.0969C37.2142 12.6022 37.4732 13.7678 36.7819 14.3917C35.9756 15.1195 34.8811 14.8003 34.5692 14.1618C34.2135 13.4377 34.2226 12.6259 34.7188 12.1553H34.717Z" fill="#ED744C"/>
        <path d="M35.7312 15.3561C35.6035 15.3561 35.4758 15.3433 35.3482 15.3196C34.779 15.2101 34.3029 14.8672 34.0749 14.4021C33.5879 13.4098 33.6919 12.3718 34.3394 11.7571C34.7353 11.3813 35.308 11.1661 35.8735 11.1825C36.3715 11.1953 36.8184 11.3868 37.1321 11.7188C37.5316 12.142 37.7724 12.8224 37.7487 13.4517C37.7268 13.9953 37.5188 14.4586 37.1467 14.7961C36.7436 15.1609 36.242 15.3542 35.7312 15.3542V15.3561ZM35.0928 12.5524C34.8046 12.826 34.7918 13.3751 35.0581 13.9205C35.1329 14.0737 35.3281 14.2014 35.5543 14.2452C35.7312 14.2799 36.076 14.2908 36.4134 13.9862C36.5648 13.8494 36.6451 13.656 36.6542 13.4116C36.6688 13.0322 36.5046 12.6527 36.3368 12.474C36.1927 12.3208 35.9884 12.2843 35.8443 12.2806C35.5652 12.2733 35.2788 12.3791 35.0928 12.5561V12.5524Z" fill="black"/>
    </g>
    <defs>
        <clipPath id="clip0_830_4803">
            <rect width="37.5" height="22.8196" fill="white" transform="translate(0.25 0.0859375)"/>
        </clipPath>
    </defs>
</svg>
